<svg id="Capa_1" enable-background="new 0 0 512 512" height="512" viewBox="0 0 512 512" width="512" xmlns="http://www.w3.org/2000/svg"><g><path d="m497.15 372.871-84.588-57c-3.436-2.314-8.096-1.405-10.411 2.028-2.314 3.436-1.406 8.096 2.028 10.411l84.589 57c5.154 3.473 8.231 9.257 8.231 15.473v25.728c0 2.056-1.751 2.981-2.995 2.981-.57 0-1.102-.171-1.624-.523l-217.572-146.612c-11.374-7.663-26.242-7.663-37.616 0l-73.005 49.194c-3.435 2.315-4.343 6.976-2.029 10.411 2.315 3.436 6.978 4.345 10.411 2.029l73.005-49.194c6.305-4.249 14.547-4.248 20.852 0l161.207 108.629h-343.266l59.177-39.876c3.435-2.315 4.343-6.976 2.029-10.411-2.315-3.436-6.975-4.343-10.411-2.029l-115.543 77.858c-.522.352-1.054.523-1.624.523-1.244 0-2.995-.925-2.995-2.981v-25.728c0-6.215 3.077-12 8.231-15.473l197.368-132.996c4.157-2.801 3.309-6.322 3.309-16.358 0-17.695 14.396-32.091 32.092-32.091s32.092 14.396 32.092 32.091c0 10.022-.849 13.556 3.309 16.358l83.755 56.438c3.438 2.315 8.098 1.407 10.411-2.029 2.314-3.435 1.406-8.096-2.028-10.411l-80.446-54.208v-6.149c0-23.414-17.178-42.884-39.592-46.487v-18.231c0-6.782 5.518-12.3 12.3-12.3 25.907 0 46.671-21.453 45.681-47.488-.901-23.721-20.188-43.007-43.907-43.907-26.013-1.002-47.488 19.762-47.488 45.681 0 4.142 3.358 7.5 7.5 7.5s7.5-3.358 7.5-7.5c0-17.397 14.385-31.345 31.919-30.692 15.93.605 28.882 13.557 29.488 29.487.669 17.648-13.427 31.919-30.692 31.919-15.053 0-27.3 12.247-27.3 27.3v18.231c-22.413 3.603-39.592 23.074-39.592 46.487v6.149l-194.061 130.768c-9.298 6.266-14.849 16.7-14.849 27.912v25.728c0 9.915 8.072 17.981 17.995 17.981 7.166 0 7.38-1.315 44.112-26.066h387.786l34.107 22.983c2.994 2.017 6.454 3.083 10.005 3.083 9.923 0 17.995-8.066 17.995-17.981v-25.728c0-11.212-5.552-21.647-14.85-27.912z"/></g></svg>